# xmcd
#
# Track frame offsets:
#	150
#	10645
#	26445
#	45302
#	60087
#	77852
#	96220
#	108255
#	122437
#	135855
#	149717
#	162905
#	179005
#
# Disc length: 2590 seconds
#
# Revision: 1
# Processed by: cddbd v1.5.2PL0 Copyright (c) Steve Scherf et al.
# Submitted via: dBpowerAMP V4.0
#
DISCID=990a1c0d
DTITLE=Django Reinhardt - Django in Rome 1949-1950
DYEAR=1900
DGENRE=Jazz
TTITLE0=Micro (Mike)
TTITLE1=Stormy Weather
TTITLE2=Blue Skies
TTITLE3=The Man I Love
TTITLE4=The Peanut Vendor
TTITLE5=It Might as Well be Spring
TTITLE6=Micro (Mike)/Alternate Take
TTITLE7=Danse Norvegienne
TTITLE8=Dinette
TTITLE9=Reverie
TTITLE10=Place de Broukere
TTITLE11=Black Night
TTITLE12=Boogie Woogie
EXTD=
EXTT0=
EXTT1=
EXTT2=
EXTT3=
EXTT4=
EXTT5=
EXTT6=
EXTT7=
EXTT8=
EXTT9=
EXTT10=
EXTT11=
EXTT12=
PLAYORDER=
